HIERARCHY
ROOT Hips
{
	OFFSET 0.000000 0.000000 0.000000
	CHANNELS 6 Xposition Yposition Zposition Zrotation Yrotation Xrotation 
	JOINT LeftUpLeg_virtual
	{
		OFFSET 0.000000 0.000000 0.000000
		CHANNELS 3 Zrotation Yrotation Xrotation
		JOINT LeftUpLeg
		{
			OFFSET 10.205400 -3.823500 0.155100
			CHANNELS 3 Zrotation Yrotation Xrotation
			JOINT LeftLeg
			{
				OFFSET 0.708757 -12.982077 0.567790
				CHANNELS 3 Zrotation Yrotation Xrotation
				JOINT LeftFoot
				{
					OFFSET -0.708756 -10.717838 -2.184338
					CHANNELS 3 Zrotation Yrotation Xrotation
					JOINT LeftToeBase
					{
						OFFSET 0.108149 -7.191104 7.560241
						CHANNELS 3 Zrotation Yrotation Xrotation
						End Site
						{
							OFFSET 0.000000 0.000000 0.000000
						}
					}
				}
			}
		}
	}
	JOINT RightUpLeg_virtual
	{
		OFFSET 0.000000 0.000000 0.000000
		CHANNELS 3 Zrotation Yrotation Xrotation
		JOINT RightUpLeg
		{
			OFFSET -10.205400 -3.823500 0.005500
			CHANNELS 3 Zrotation Yrotation Xrotation
			JOINT RightLeg
			{
				OFFSET -0.708756 -12.982134 0.610632
				CHANNELS 3 Zrotation Yrotation Xrotation
				JOINT RightFoot
				{
					OFFSET 0.708754 -10.717769 -1.945823
					CHANNELS 3 Zrotation Yrotation Xrotation
					JOINT RightToeBase
					{
						OFFSET -0.108140 -7.191069 7.372968
						CHANNELS 3 Zrotation Yrotation Xrotation
						End Site
						{
							OFFSET 0.000000 0.000000 0.000000
						}
					}
				}
			}
		}
	}
	JOINT Spine_virtual
	{
		OFFSET 0.000000 0.000000 0.000000
		CHANNELS 3 Zrotation Yrotation Xrotation
		JOINT Spine
		{
			OFFSET 0.000000 6.876099 0.125700
			CHANNELS 3 Zrotation Yrotation Xrotation
			JOINT Spine1
			{
				OFFSET 0.000000 8.022060 0.146608
				CHANNELS 3 Zrotation Yrotation Xrotation
				JOINT Spine2
				{
					OFFSET 0.000000 9.168068 0.167552
					CHANNELS 3 Zrotation Yrotation Xrotation
					JOINT Neck_virtual
					{
						OFFSET 0.000000 0.000000 0.000000
						CHANNELS 3 Zrotation Yrotation Xrotation
						JOINT Neck
						{
							OFFSET 0.000000 10.314075 0.188496
							CHANNELS 3 Zrotation Yrotation Xrotation
							JOINT Head
							{
								OFFSET 0.000000 7.643700 -2.377400
								CHANNELS 3 Zrotation Yrotation Xrotation
								End Site
								{
									OFFSET 0.000000 0.000000 0.000000
								}
							}
						}
					}
					JOINT LeftShoulder_virtual
					{
						OFFSET 0.000000 0.000000 0.000000
						CHANNELS 3 Zrotation Yrotation Xrotation
						JOINT LeftShoulder
						{
							OFFSET 4.392200 8.824978 0.174984
							CHANNELS 3 Zrotation Yrotation Xrotation
							JOINT LeftArm
							{
								OFFSET 8.771219 -2.981674 -0.026999
								CHANNELS 3 Zrotation Yrotation Xrotation
								JOINT LeftForeArm
								{
									OFFSET 8.512804 0.000000 -0.000000
									CHANNELS 3 Zrotation Yrotation Xrotation
									JOINT LeftHand
									{
										OFFSET 18.484802 0.000000 -0.000000
										CHANNELS 3 Zrotation Yrotation Xrotation
										End Site
										{
											OFFSET 0.000000 0.000000 0.000000
										}
									}
								}
							}
						}
					}
					JOINT RightShoulder_virtual
					{
						OFFSET 0.000000 0.000000 0.000000
						CHANNELS 3 Zrotation Yrotation Xrotation
						JOINT RightShoulder
						{
							OFFSET -4.392200 8.824993 0.141379
							CHANNELS 3 Zrotation Yrotation Xrotation
							JOINT RightArm
							{
								OFFSET -8.771282 -2.981682 -0.094208
								CHANNELS 3 Zrotation Yrotation Xrotation
								JOINT RightForeArm
								{
									OFFSET -8.494598 0.000000 0.000000
									CHANNELS 3 Zrotation Yrotation Xrotation
									JOINT RightHand
									{
										OFFSET -18.483803 0.000000 0.000001
										CHANNELS 3 Zrotation Yrotation Xrotation
										End Site
										{
											OFFSET 0.000000 0.000000 0.000000
										}
									}
								}
							}
						}
					}
				}
			}
		}
	}
}
MOTION
Frames: 10
Frame Time: 0.033333
2.507721 36.122135 -8.672616 -179.909218 -4.001346 -179.404563 -1.352333 -5.343664 7.677031 -6.158566 6.977157 -20.582784 13.895515 8.249448 21.582611 -7.068967 -4.217462 6.697934 0.000000 0.000000 0.000000 2.249609 -2.811307 8.001448 4.463767 4.347487 -14.864037 -7.676452 4.626284 18.598988 7.305684 1.631099 7.137925 0.000000 0.000000 0.000000 1.177747 -0.931557 -7.758980 0.375711 0.306737 -4.839088 -1.363192 -2.032548 9.286392 0.005217 -0.106429 0.182201 -1.979866 0.202790 11.301011 -0.782877 -4.730103 1.321904 0.000000 0.000000 0.000000 -0.416344 0.650268 8.937929 -12.046844 -6.495883 3.099739 -54.498797 27.251500 16.509740 1.229683 -47.740382 2.976770 0.000000 0.000000 0.000000 -4.095673 1.815978 8.235834 25.366964 3.228936 2.830971 53.504109 -18.341025 19.012725 -7.102481 32.431275 -4.796263 0.000000 0.000000 0.000000 
2.515044 36.147282 -8.632809 -179.910598 -3.743331 -179.078858 -1.306754 -5.153447 7.433157 -6.359256 6.932827 -20.611650 13.654393 8.736772 21.913450 -7.387725 -4.543528 6.387310 0.000000 0.000000 0.000000 2.141270 -2.996937 8.251948 4.254519 4.303058 -14.454087 -7.792160 5.416296 18.809943 7.247108 1.562889 7.826742 0.000000 0.000000 0.000000 1.098709 -0.755698 -8.159540 0.355586 0.241606 -5.008295 -1.407556 -2.112308 9.386972 -0.029563 -0.129522 0.090019 -1.923463 0.211212 11.290794 -0.735963 -4.630059 1.244393 0.000000 0.000000 0.000000 -0.404284 0.763975 8.913343 -12.056320 -6.290428 3.077932 -54.539863 27.073763 16.332451 1.358573 -48.093575 2.743208 0.000000 0.000000 0.000000 -4.037505 1.846381 8.284753 25.374776 3.253701 2.931456 53.500257 -18.232077 19.037911 -7.282246 32.439820 -4.978762 0.000000 0.000000 0.000000 
2.527861 36.163853 -8.597938 -179.915925 -3.476905 -179.120878 -1.350716 -5.161696 7.401159 -6.300213 7.078439 -20.426258 13.653760 8.848440 21.739307 -7.384087 -4.555645 6.448395 0.000000 0.000000 0.000000 2.159908 -3.010844 8.214572 4.248788 4.419181 -14.515619 -7.821247 5.606107 18.797717 7.259159 1.513075 7.833991 0.000000 0.000000 0.000000 1.010816 -0.870447 -8.113267 0.326132 0.266380 -5.183357 -1.425125 -2.078896 9.221727 -0.000029 -0.069246 0.169859 -2.002047 0.121591 11.281419 -0.881876 -4.606161 1.360795 0.000000 0.000000 0.000000 -0.465771 0.707822 8.893859 -12.123121 -6.253881 3.013552 -54.393017 26.716912 16.248800 1.369424 -48.423681 2.601617 0.000000 0.000000 0.000000 -4.050925 1.776224 8.259604 25.404383 3.286134 2.905510 53.476659 -18.239530 18.895903 -7.237689 32.683770 -4.969261 0.000000 0.000000 0.000000 
2.552251 36.176968 -8.555984 -179.924408 -3.110336 -179.145535 -1.361936 -5.196853 7.427882 -6.242953 7.214118 -20.290380 13.689770 9.012509 21.566566 -7.382128 -4.543638 6.500133 0.000000 0.000000 0.000000 2.173463 -2.979589 8.198052 4.299928 4.603104 -14.682861 -7.849136 5.836278 18.853726 7.279150 1.445921 7.836233 0.000000 0.000000 0.000000 0.927900 -0.858702 -8.187458 0.312521 0.238447 -5.377787 -1.431146 -2.095078 9.369275 -0.001031 -0.068163 0.113579 -2.037193 0.287226 11.252537 -1.036915 -4.516253 1.626260 0.000000 0.000000 0.000000 -0.478534 0.654054 8.868607 -12.151861 -6.266557 2.958252 -54.176374 26.116328 16.367529 1.305428 -48.897358 2.469756 0.000000 0.000000 0.000000 -4.096370 1.823331 8.237143 25.408230 3.336978 2.800055 53.346001 -18.131681 18.866202 -7.100677 32.948266 -4.906484 0.000000 0.000000 0.000000 
2.597485 36.187069 -8.514153 -179.932728 -2.684115 -179.208659 -1.381444 -5.278149 7.529422 -6.146843 7.229969 -20.155895 13.787397 9.141710 21.358305 -7.328798 -4.473209 6.610454 0.000000 0.000000 0.000000 2.172692 -2.895571 8.206800 4.410834 4.822847 -14.882951 -7.916352 6.040696 18.988134 7.285308 1.323665 7.871475 0.000000 0.000000 0.000000 0.889523 -0.890410 -8.034098 0.244553 0.155456 -5.636670 -1.530098 -2.150834 9.298272 0.008310 -0.113013 0.182083 -2.068508 0.186371 11.251163 -1.184738 -4.375435 1.873874 0.000000 0.000000 0.000000 -0.496982 0.727564 8.811173 -12.256424 -6.149664 2.892834 -53.842767 25.483204 16.408607 1.264958 -49.599399 2.292610 0.000000 0.000000 0.000000 -4.142929 1.815107 8.318316 25.434817 3.680736 2.819285 53.118777 -17.767598 18.992591 -7.107039 33.421058 -4.959816 0.000000 0.000000 0.000000 
2.658998 36.189098 -8.455840 -179.965198 -2.289726 -179.253780 -1.371020 -5.388133 7.586875 -6.076114 7.325238 -20.055416 13.830741 9.114822 21.187914 -7.260795 -4.327844 6.702647 0.000000 0.000000 0.000000 2.122328 -2.767416 8.140231 4.602296 5.006500 -15.062725 -7.965610 6.180944 19.157151 7.335176 1.185921 7.940221 0.000000 0.000000 0.000000 0.803469 -0.725241 -7.899384 0.199939 0.016750 -5.858839 -1.568831 -2.283035 9.351799 -0.051278 -0.058854 0.177487 -2.129159 0.101756 11.348091 -1.340173 -4.226881 2.274191 0.000000 0.000000 0.000000 -0.502780 0.677590 8.901342 -12.332561 -6.265814 2.845605 -53.383574 24.659986 16.451422 1.044669 -50.358865 2.279444 0.000000 0.000000 0.000000 -4.108413 1.701385 8.452684 25.409823 4.030489 2.717308 52.750145 -17.286826 19.065431 -7.040709 33.914813 -4.990235 0.000000 0.000000 0.000000 
2.731444 36.189465 -8.346032 -179.932017 -1.933423 -179.284106 -1.302792 -5.356143 7.484247 -5.984216 7.475341 -20.026446 13.795183 8.859917 21.075787 -7.182998 -4.120859 6.732482 0.000000 0.000000 0.000000 2.106110 -2.583545 7.944665 4.862831 5.180922 -15.179038 -8.025401 6.224735 19.325920 7.368344 0.988521 8.037931 0.000000 0.000000 0.000000 0.699607 -0.721563 -7.847859 0.266760 0.092826 -6.052933 -1.611399 -2.176208 9.551922 -0.011621 -0.088426 0.142124 -2.140521 0.095132 11.468002 -1.592818 -4.024896 2.641029 0.000000 0.000000 0.000000 -0.536175 0.566667 9.089481 -12.364602 -6.430730 2.649454 -52.844252 23.753622 16.656308 0.846041 -51.382892 2.257223 0.000000 0.000000 0.000000 -4.150267 1.648525 8.534647 25.423830 4.123701 2.681446 52.276748 -16.680507 19.272069 -7.056931 34.648040 -5.084851 0.000000 0.000000 0.000000 
2.804789 36.192638 -8.211659 -179.913221 -1.538233 -179.315579 -1.297364 -5.132097 7.261809 -5.774138 7.380282 -19.977975 13.713216 8.713107 21.092737 -7.097739 -3.938495 6.781135 0.000000 0.000000 0.000000 2.085815 -2.314058 7.646165 5.128211 5.309619 -15.205946 -8.090421 6.292834 19.487363 7.391147 0.757508 8.193846 0.000000 0.000000 0.000000 0.663528 -0.537349 -7.789405 0.114200 0.029009 -6.190403 -1.551780 -2.229393 9.800936 -0.022346 -0.090275 0.120660 -2.133617 -0.025583 11.637906 -1.697605 -4.048943 3.049411 0.000000 0.000000 0.000000 -0.475736 0.543262 9.247220 -12.378565 -6.605221 2.578053 -52.318088 22.750643 16.724833 0.558175 -52.324618 2.331505 0.000000 0.000000 0.000000 -4.194132 1.631867 8.700741 25.368554 4.435948 2.574481 51.769118 -15.950952 19.572484 -6.981095 35.326172 -5.079932 0.000000 0.000000 0.000000 
2.884218 36.198162 -8.073893 -179.910489 -1.102495 -179.342750 -1.293297 -4.829092 7.016685 -5.473514 7.277328 -19.913208 13.490331 8.688670 21.045672 -7.069607 -3.739050 6.975243 0.000000 0.000000 0.000000 2.077243 -1.997821 7.303545 5.380381 5.375424 -15.235111 -8.128498 6.404652 19.657805 7.396230 0.530892 8.404310 0.000000 0.000000 0.000000 0.570357 -0.309498 -7.754895 0.060922 -0.022834 -6.281530 -1.596860 -2.271112 10.096854 0.043302 -0.080843 0.109371 -2.101784 -0.165468 11.903718 -1.803701 -3.946065 3.453487 0.000000 0.000000 0.000000 -0.438206 0.474905 9.451909 -12.345723 -6.838573 2.491072 -51.803044 21.706884 16.649768 0.172758 -53.177589 2.498235 0.000000 0.000000 0.000000 -4.182129 1.595379 8.917480 25.301756 4.727371 2.456365 51.318193 -15.113207 19.905951 -6.957261 35.973561 -5.144854 0.000000 0.000000 0.000000 
2.981526 36.205341 -7.949193 -179.902989 -0.691605 -179.366314 -1.276840 -4.510659 6.859816 -5.129448 7.321828 -19.902818 13.163762 8.640416 20.900937 -7.131004 -3.518136 7.235891 0.000000 0.000000 0.000000 2.102087 -1.679253 7.059176 5.602317 5.331523 -15.342651 -8.122002 6.507921 19.847674 7.363361 0.335481 8.661475 0.000000 0.000000 0.000000 0.453107 0.009643 -7.684717 0.018550 -0.109885 -6.360771 -1.545330 -2.377572 10.345614 -0.058855 -0.135361 0.144583 -2.072091 -0.017389 12.233303 -1.807053 -3.787807 3.868836 0.000000 0.000000 0.000000 -0.420596 0.369628 9.748527 -12.195182 -7.062521 2.457562 -51.214558 20.629470 16.302705 -0.087483 -53.875532 2.541368 0.000000 0.000000 0.000000 -4.075992 1.591992 9.198854 25.218897 4.957405 2.310726 50.985682 -14.197916 20.218325 -7.088018 36.629785 -5.369190 0.000000 0.000000 0.000000 
